<?xml version="1.0" encoding="UTF-8" standalone="no"?>
<!-- Uploaded to: SVG Repo, www.svgrepo.com, Generator: SVG Repo Mixer Tools -->

<svg
   width="580"
   height="580"
   viewBox="0 0 17.4 17.4"
   fill="none"
   version="1.1"
   id="svg370"
   sodipodi:docname="icon.svg"
   inkscape:version="1.2.2 (732a01da63, 2022-12-09)"
   inkscape:export-filename="icon.png"
   inkscape:export-xdpi="21.186207"
   inkscape:export-ydpi="21.186207"
   xmlns:inkscape="http://www.inkscape.org/namespaces/inkscape"
   xmlns:sodipodi="http://sodipodi.sourceforge.net/DTD/sodipodi-0.dtd"
   xmlns="http://www.w3.org/2000/svg"
   xmlns:svg="http://www.w3.org/2000/svg">
  <defs
     id="defs374" />
  <sodipodi:namedview
     id="namedview372"
     pagecolor="#ffffff"
     bordercolor="#666666"
     borderopacity="1.0"
     inkscape:showpageshadow="2"
     inkscape:pageopacity="0.0"
     inkscape:pagecheckerboard="0"
     inkscape:deskcolor="#d1d1d1"
     showgrid="false"
     inkscape:zoom="1.28375"
     inkscape:cx="-239.14314"
     inkscape:cy="350.53554"
     inkscape:window-width="3840"
     inkscape:window-height="2066"
     inkscape:window-x="3829"
     inkscape:window-y="-11"
     inkscape:window-maximized="1"
     inkscape:current-layer="svg370" />
  <path
     fill-rule="evenodd"
     clip-rule="evenodd"
     d="m 1.2802337,15.479649 c 0,0.353524 0.2865931,0.640117 0.6401167,0.640117 0.353524,0 0.640117,-0.286593 0.640117,-0.640117 0,-0.353523 -0.286593,-0.640116 -0.640117,-0.640116 -0.3535236,0 -0.6401167,0.286593 -0.6401167,0.640116 z m 1.2802337,-1.811076 c 0.7458583,0.26362 1.2802338,0.974943 1.2802338,1.811076 C 3.8407012,16.540227 2.9809284,17.4 1.9203504,17.4 0.8597729,17.4 0,16.540227 0,15.479649 0,14.643516 0.5343759,13.932193 1.2802337,13.668573 V 8.3290958 C 0.5343759,8.0654957 0,7.354134 0,6.518013 0,5.457404 0.8597729,4.597663 1.9203504,4.597663 c 1.060578,0 1.9203508,0.859741 1.9203508,1.92035 0,0.810772 -0.5024535,1.5042107 -1.2129708,1.7858618 0.221935,0.815253 0.9675053,1.414723 1.8530878,1.414723 h 1.280233 c 2.121155,0 3.840701,1.7195462 3.840701,3.8407012 v 0.109274 c 0.7458638,0.26362 1.2802338,0.974943 1.2802338,1.811076 0,1.060578 -0.859741,1.920351 -1.9203508,1.920351 -1.060609,0 -1.92035,-0.859773 -1.92035,-1.920351 0,-0.836133 0.534369,-1.547456 1.280234,-1.811076 v -0.109274 c 0,-1.414082 -1.146386,-2.560467 -2.560468,-2.560467 h -1.280233 c -0.720522,0 -1.3854308,-0.23806 -1.9203508,-0.639861 z m 6.4011678,1.17096 c 0.353537,0 0.640117,0.286593 0.640117,0.640116 0,0.353524 -0.28658,0.640117 -0.640117,0.640117 -0.353536,0 -0.640116,-0.286593 -0.640116,-0.640117 0,-0.353523 0.28658,-0.640116 0.640116,-0.640116 z M 1.2802337,6.518013 c 0,0.353537 0.2865931,0.640117 0.6401167,0.640117 0.353524,0 0.640117,-0.28658 0.640117,-0.640117 0,-0.353536 -0.286593,-0.640116 -0.640117,-0.640116 -0.3535236,0 -0.6401167,0.28658 -0.6401167,0.640116 z"
     fill="#000000"
     id="path368"
     style="stroke-width:0.640117;fill:#711111;fill-opacity:1" />
  <g
     id="g140"
     transform="matrix(0.03238049,0,0,0.03238049,6.4090706,-2.4285367e-5)"
     style="fill:#711111;fill-opacity:1">
    <path
       style="fill:#711111;fill-opacity:1"
       d="M 335.165,292.071 253.78,207.994 c -5.836,-6.032 -13.13,-8.447 -16.29,-5.363 -3.171,3.062 -10.47,0.653 -16.306,-5.379 l -1.164,-1.207 c 36.425,-47.907 32.89,-116.499 -10.851,-160.24 -47.739,-47.739 -125.142,-47.739 -172.875,0 -47.739,47.739 -47.739,125.131 0,172.87 44.486,44.492 114.699,47.472 162.704,9.045 l 0.511,0.533 c 5.825,6.032 7.995,13.402 4.814,16.469 -3.166,3.068 -1.012,10.443 4.83,16.464 l 81.341,84.11 c 5.836,6.016 15.452,6.195 21.49,0.354 l 22.828,-22.088 c 6.015,-5.827 6.178,-15.437 0.353,-21.491 z M 182.306,181.81 c -32.852,32.857 -86.312,32.857 -119.159,0.011 -32.852,-32.852 -32.847,-86.318 0,-119.164 32.847,-32.852 86.307,-32.847 119.148,0.005 32.857,32.847 32.857,86.302 0.011,119.148 z"
       id="path138" />
  </g>
</svg>
